<?xml version="1.0" standalone="no"?>
<!DOCTYPE svg PUBLIC "-//W3C//DTD SVG 20010904//EN"
 "http://www.w3.org/TR/2001/REC-SVG-20010904/DTD/svg10.dtd">
<svg version="1.0" xmlns="http://www.w3.org/2000/svg"
 width="640.000000pt" height="360.000000pt" viewBox="0 0 640.000000 360.000000"
 preserveAspectRatio="xMidYMid meet">

<g transform="translate(0.000000,360.000000) scale(0.100000,-0.100000)"
fill="#000000" stroke="none">
<path d="M2554 3589 c-3 -6 -1 -16 5 -22 8 -8 11 -5 11 11 0 24 -5 28 -16 11z"/>
<path d="M2720 3590 c0 -5 4 -10 9 -10 6 0 13 5 16 10 3 6 -1 10 -9 10 -9 0
-16 -4 -16 -10z"/>
<path d="M2828 3593 c7 -3 16 -2 19 1 4 3 -2 6 -13 5 -11 0 -14 -3 -6 -6z"/>
<path d="M2890 3585 c9 -11 9 -22 1 -46 -16 -46 -14 -57 5 -30 10 13 18 39 20
57 2 28 -1 34 -18 34 -17 0 -18 -3 -8 -15z"/>
<path d="M2943 3586 c9 -7 17 -21 17 -32 0 -13 3 -15 11 -7 17 17 1 53 -24 53
-20 -1 -21 -2 -4 -14z"/>
<path d="M3000 3591 c0 -6 5 -13 10 -16 6 -3 10 1 10 9 0 9 -4 16 -10 16 -5 0
-10 -4 -10 -9z"/>
<path d="M3064 3591 c3 -5 -1 -11 -9 -15 -19 -7 -19 -26 0 -26 8 0 15 -4 15
-10 0 -15 -27 -12 -44 5 -20 20 -26 19 -26 -5 0 -11 -4 -20 -10 -20 -5 0 -10
-13 -10 -30 0 -32 -26 -43 -36 -15 -4 8 -12 15 -20 15 -16 0 -19 -16 -4 -25
17 -10 11 -25 -10 -25 -11 0 -20 6 -21 13 0 6 -5 -1 -10 -18 -5 -18 -5 -33 1
-39 13 -13 13 -49 0 -41 -6 4 -17 1 -25 -5 -8 -7 -24 -10 -35 -7 -16 4 -20 0
-20 -23 0 -24 3 -27 25 -22 15 2 25 0 25 -7 0 -15 -57 -14 -67 2 -12 19 -9 67
4 67 16 0 21 20 15 60 -6 39 -22 60 -46 60 -23 0 -20 -17 4 -25 27 -8 26 -54
0 -83 -17 -18 -18 -22 -5 -22 23 0 18 -14 -15 -38 -35 -26 -65 -30 -33 -4 13
10 21 28 21 46 0 15 -4 23 -8 17 -3 -7 -15 -9 -26 -6 -13 4 -12 2 4 -6 12 -7
22 -18 22 -26 0 -10 -5 -11 -19 -3 -25 13 -44 13 -36 -1 4 -6 -1 -17 -11 -24
-18 -14 -18 -14 6 -16 l25 -1 -25 -8 c-17 -5 -19 -8 -7 -9 23 -1 22 -17 -3
-24 -11 -3 -20 -14 -20 -24 0 -11 -6 -28 -14 -38 -13 -18 -15 -18 -49 -2 -20
10 -39 26 -42 37 -4 11 -10 20 -15 20 -12 0 -60 48 -60 60 0 6 -5 10 -10 10
-6 0 -23 9 -38 19 -15 11 -53 22 -87 25 -32 4 -62 11 -65 16 -3 5 -11 5 -20 0
-8 -6 -29 -10 -47 -10 -37 0 -140 -25 -157 -38 -6 -5 -23 -12 -39 -16 -15 -4
-35 -13 -45 -21 -9 -9 -34 -29 -55 -46 -27 -23 -39 -41 -43 -70 -6 -36 -23
-55 -25 -26 0 6 -5 1 -10 -12 -5 -13 -7 -26 -4 -29 3 -3 5 0 5 6 0 7 4 12 9
12 6 0 6 -12 0 -32 -5 -18 -9 -46 -9 -63 0 -16 -8 -39 -17 -50 -14 -18 -15
-18 -9 -2 14 43 18 68 12 92 -10 40 -22 29 -19 -17 1 -24 -1 -33 -3 -20 -3 12
-10 22 -15 22 -6 0 -7 9 -4 20 4 12 2 20 -5 20 -7 0 -10 7 -6 15 3 9 0 15 -10
15 -12 0 -15 -9 -12 -36 2 -31 -1 -38 -21 -45 -21 -8 -22 -8 -11 7 11 13 11
17 1 24 -8 4 -10 13 -7 19 4 6 2 11 -4 11 -8 0 -10 -9 -6 -24 4 -18 2 -23 -11
-22 -8 0 -18 -5 -20 -11 -3 -7 2 -13 11 -13 9 0 16 -4 16 -10 0 -5 -16 -10
-35 -10 -19 0 -35 5 -35 10 0 6 8 10 18 10 14 0 14 2 3 9 -8 5 -20 7 -26 5
-18 -7 -36 -54 -30 -75 4 -13 1 -19 -9 -19 -19 0 -36 30 -36 64 0 20 5 26 22
26 12 0 19 3 15 6 -3 4 -17 4 -30 0 -20 -5 -23 -10 -19 -37 4 -30 3 -31 -21
-25 -19 4 -29 1 -36 -11 -9 -16 -10 -16 -11 -2 0 27 -27 44 -45 29 -9 -7 -18
-10 -22 -7 -9 9 -43 -12 -43 -27 0 -13 -31 -46 -43 -46 -4 0 -7 7 -7 15 0 9
-6 12 -15 9 -18 -7 -43 16 -37 34 3 9 -4 7 -17 -4 -23 -20 -28 -29 -9 -18 7 5
9 2 5 -9 -8 -20 16 -39 38 -31 13 5 16 3 13 -7 -3 -8 -11 -13 -18 -11 -7 1
-20 -6 -30 -17 -9 -12 -20 -18 -24 -14 -3 3 -6 -2 -6 -11 0 -13 5 -16 16 -12
13 5 14 4 5 -7 -8 -10 -7 -44 4 -133 19 -151 19 -165 1 -158 -10 4 -16 -2 -18
-18 -2 -13 -11 33 -21 102 -19 142 -50 244 -79 264 -22 16 -10 29 19 20 14 -4
13 -1 -6 15 -31 27 -53 26 -102 -5 -49 -30 -50 -58 -2 -61 39 -2 90 -38 108
-78 12 -27 22 -71 30 -130 1 -11 5 -27 8 -35 28 -73 35 -187 16 -249 -23 -74
-87 -194 -123 -230 -24 -24 -82 -39 -125 -33 -34 5 -137 111 -161 165 -11 25
-27 47 -34 50 -21 8 -24 -3 -42 -161 -8 -73 -24 -92 -25 -30 0 44 -3 42 -25
-17 -6 -17 -8 -14 -13 15 l-6 35 -14 -45 c-7 -25 -17 -56 -22 -70 -8 -23 -9
-22 -3 4 5 26 3 28 -10 17 -13 -11 -17 -10 -24 10 l-9 23 -7 -25 -8 -24 -7 25
c-7 24 -8 24 -20 -12 -7 -21 -18 -41 -25 -45 -7 -5 -23 -30 -36 -57 -13 -28
-25 -45 -28 -38 -4 13 36 141 51 160 7 9 7 16 -1 24 -6 6 -8 18 -5 27 3 12 2
11 -7 -2 -7 -10 -10 -27 -7 -37 3 -11 -1 -24 -9 -31 -8 -6 -14 -18 -14 -26 0
-15 -14 -50 -50 -127 -10 -21 -17 -49 -15 -62 1 -14 -2 -21 -8 -17 -6 4 -8 0
-5 -9 4 -9 -4 -21 -24 -33 l-30 -17 13 23 c7 13 14 31 15 39 5 30 35 207 44
260 17 98 40 313 40 378 0 74 33 250 57 305 9 20 13 40 10 44 -4 3 -7 1 -7 -6
0 -7 -7 -19 -15 -27 -8 -9 -15 -11 -15 -5 0 6 -20 11 -47 11 -35 0 -44 -3 -33
-10 8 -5 24 -7 35 -4 11 4 17 3 13 -1 -4 -5 -3 -15 4 -22 15 -18 -10 -37 -28
-22 -15 12 -25 -22 -12 -45 7 -12 5 -16 -7 -16 -19 0 -20 -24 0 -40 23 -19 19
-43 -5 -35 -14 5 -20 2 -20 -10 0 -9 4 -14 9 -11 10 6 25 -43 16 -52 -3 -3 -5
2 -5 11 0 9 -7 17 -15 17 -13 0 -13 -3 -3 -20 10 -16 10 -24 0 -40 -16 -26
-15 -33 3 -26 17 6 21 -9 5 -19 -6 -4 -8 -11 -5 -16 4 -5 0 -12 -9 -15 -11 -4
-14 -18 -10 -59 2 -32 -2 -71 -10 -95 -8 -24 -10 -43 -4 -46 11 -7 8 -63 -4
-80 -4 -5 -7 -21 -6 -35 4 -66 -2 -99 -19 -100 -11 0 -13 -3 -5 -6 6 -2 12
-17 12 -32 0 -15 5 -32 12 -39 7 -7 8 -12 2 -12 -6 0 -8 -17 -6 -37 2 -26 0
-34 -6 -25 -7 11 -10 9 -14 -6 -3 -11 -2 -25 2 -32 10 -16 -11 -60 -29 -60
-11 0 -11 -3 -1 -15 10 -13 10 -19 -5 -35 -9 -10 -23 -16 -30 -13 -10 3 -13
-2 -9 -21 2 -14 1 -26 -4 -26 -4 0 -16 -6 -26 -13 -18 -13 -18 -14 0 -32 17
-17 17 -18 2 -12 -14 5 -18 1 -18 -16 0 -13 5 -28 11 -34 8 -8 22 11 52 67 52
97 71 124 125 177 61 62 92 71 237 74 119 2 127 1 150 -21 30 -28 32 -22 6 21
-18 30 -18 34 -3 65 8 19 20 34 25 34 5 0 7 6 4 13 -3 8 -1 20 4 28 8 12 12
11 24 -5 20 -26 20 -5 0 49 -23 65 -20 76 18 68 17 -3 36 -10 41 -14 6 -5 25
-9 43 -9 23 0 35 -5 39 -17 3 -10 11 -28 17 -41 9 -18 8 -25 -3 -32 -11 -7
-12 -10 -2 -10 7 0 12 -6 11 -12 -3 -17 16 -66 50 -133 3 -5 -6 -3 -19 6 -14
9 -34 39 -45 67 -23 60 -47 79 -35 29 4 -18 15 -49 24 -71 9 -21 13 -42 10
-48 -7 -11 15 -68 26 -68 13 0 18 -48 7 -59 -8 -8 -7 -11 2 -11 11 0 11 -3 1
-16 -11 -12 -11 -15 0 -12 7 2 15 -4 17 -12 3 -10 2 -11 -4 -4 -4 6 -17 8 -28
4 -19 -6 -18 -8 5 -20 14 -7 30 -19 37 -26 7 -7 25 -22 39 -33 30 -24 30 -27
-5 -226 -21 -115 -49 -391 -56 -536 -6 -133 -5 -158 20 -285 25 -132 46 -219
65 -274 10 -30 76 -207 85 -232 7 -17 38 -18 456 -18 293 0 449 3 449 10 0 6
9 10 20 10 11 0 20 -5 20 -11 0 -8 5 -8 15 1 12 10 15 10 16 -1 0 -8 4 -5 9 6
7 17 9 17 9 3 1 -10 6 -18 11 -18 6 0 10 28 10 65 0 58 2 65 19 65 16 0 21 -9
25 -42 4 -24 5 -52 4 -62 -3 -17 5 -19 85 -23 82 -3 87 -2 78 15 -5 9 -19 26
-31 37 -13 11 -29 34 -36 50 -9 19 -13 24 -14 12 0 -10 7 -32 16 -49 9 -16 11
-28 6 -24 -5 3 -20 32 -32 63 -13 32 -24 59 -25 60 0 1 -35 -8 -77 -21 -42
-13 -79 -22 -82 -18 -3 3 14 42 38 86 70 132 69 122 57 439 -7 155 -16 343
-21 417 -17 228 -70 513 -135 720 -18 58 -38 128 -44 155 -17 70 -86 253 -139
364 -42 88 -44 96 -33 132 7 22 21 47 32 58 12 11 23 39 28 70 7 45 5 54 -13
76 -12 13 -32 59 -45 101 -22 72 -23 78 -7 110 8 19 22 34 30 34 38 0 92 -84
97 -150 1 -8 5 -1 9 15 24 89 50 168 60 179 5 7 11 32 12 55 1 29 7 45 20 52
10 5 18 16 18 24 0 8 5 15 10 15 6 0 10 8 11 18 0 12 3 10 10 -8 l10 -24 17
25 c9 14 23 24 31 21 8 -3 11 0 7 7 -4 6 -3 11 3 11 5 0 13 -4 16 -10 3 -5 1
-10 -4 -10 -6 0 -11 -10 -11 -22 0 -20 1 -20 18 -5 43 39 169 20 217 -33 10
-11 26 -20 36 -20 31 0 76 -51 82 -92 3 -21 2 -38 -4 -38 -5 0 -9 -7 -9 -15 0
-8 5 -15 11 -15 7 0 5 -10 -5 -25 -14 -22 -15 -26 -2 -31 8 -3 13 -12 12 -21
-2 -10 -18 -16 -55 -18 -52 -4 -91 -25 -91 -49 0 -12 20 -16 73 -17 15 0 27
-5 27 -12 0 -7 5 -18 12 -25 9 -9 14 -7 24 6 12 14 13 10 8 -33 -6 -64 -24
-126 -41 -146 -7 -8 -13 -21 -13 -27 0 -7 -4 -12 -10 -12 -5 0 -10 -10 -10
-23 0 -25 -55 -97 -74 -97 -6 0 -12 -9 -13 -21 -2 -28 -21 -49 -44 -49 -10 0
-21 -4 -24 -10 -3 -5 -17 -10 -31 -10 -30 0 -43 -27 -20 -43 19 -14 18 -48 -3
-87 -14 -25 -14 -25 7 -6 12 10 27 34 34 52 7 19 16 34 20 34 13 0 9 -38 -8
-78 -9 -23 -13 -50 -9 -69 6 -34 -8 -46 -19 -17 -4 9 -9 14 -13 11 -3 -4 1
-17 10 -30 9 -13 13 -35 10 -53 -3 -20 -2 -25 5 -15 8 11 12 10 21 -6 5 -11 7
-23 4 -27 -3 -3 -1 -6 4 -6 6 0 14 -19 18 -42 4 -24 14 -56 22 -71 7 -15 14
-47 14 -70 0 -23 2 -64 5 -90 6 -47 5 -49 -17 -47 -49 4 -89 0 -89 -10 0 -5 7
-7 16 -3 9 3 20 0 25 -8 6 -10 9 -10 9 -1 0 7 13 12 30 12 30 0 38 -13 39 -62
2 -78 5 -98 12 -98 5 0 9 -9 9 -20 0 -10 5 -31 12 -46 10 -22 10 -28 -5 -39
-9 -7 -17 -20 -17 -31 0 -17 0 -17 13 1 13 17 14 17 20 -5 9 -34 1 -40 -56
-41 -43 0 -48 -2 -29 -10 13 -5 28 -7 32 -4 5 3 11 1 15 -4 3 -6 12 -8 20 -5
17 7 35 -52 35 -121 0 -36 3 -46 10 -35 8 13 10 13 10 -2 0 -9 -5 -18 -11 -20
-15 -5 -2 -48 14 -48 18 0 37 -51 41 -111 2 -30 11 -99 20 -154 21 -137 22
-133 -16 -131 -36 2 -31 -11 -62 156 -9 47 -17 97 -19 113 -1 15 -5 27 -9 27
-4 0 -8 9 -8 20 0 13 -5 18 -15 14 -11 -5 -15 1 -15 21 0 15 4 24 10 20 13 -8
13 36 -1 55 -8 12 -9 10 -4 -7 4 -16 2 -23 -8 -23 -11 0 -13 -10 -10 -40 4
-29 1 -41 -10 -46 -11 -4 -14 -17 -11 -47 2 -23 4 -60 3 -82 0 -22 3 -36 7
-32 5 4 8 38 9 75 0 60 2 67 20 67 16 0 22 -10 31 -50 32 -142 45 -229 39
-255 -4 -20 -3 -30 5 -30 6 0 9 4 6 9 -3 5 6 12 21 16 36 9 55 -17 47 -62 -4
-20 -2 -33 4 -33 6 0 8 9 5 20 -3 11 -1 20 5 20 11 0 62 -143 62 -173 0 -10
-5 -28 -12 -40 -7 -13 -11 -51 -9 -91 3 -66 2 -69 -15 -52 -11 11 -13 20 -7
24 7 5 8 30 3 72 -4 36 -8 59 -9 53 -1 -17 -47 -17 -54 0 -2 7 -10 55 -17 107
-7 52 -17 102 -22 110 -5 10 -7 3 -3 -20 28 -187 26 -217 -10 -221 -5 0 -19
-3 -30 -6 -11 -2 -30 -4 -43 -4 -14 1 -21 -3 -16 -10 3 -6 19 -9 34 -5 26 5
28 3 35 -39 3 -25 11 -47 16 -51 6 -4 8 12 3 44 -6 45 -4 51 16 62 40 21 57
-10 64 -115 3 -50 5 -91 6 -93 0 -2 4 0 10 3 13 8 13 4 -5 -39 l-15 -36 199 0
c150 0 201 3 205 13 5 9 7 9 12 0 4 -10 41 -13 135 -13 84 0 128 4 124 10 -3
6 1 10 9 10 9 0 16 -6 16 -12 0 -10 3 -9 9 1 6 9 11 10 15 2 5 -8 218 -11 752
-11 710 0 744 1 744 18 0 14 26 28 110 61 125 48 152 69 53 40 -81 -23 -136
-24 -153 -4 -17 21 -30 19 -30 -6 0 -23 -23 -21 -28 2 -3 15 34 33 166 82 45
16 82 34 82 38 0 11 -7 11 -50 0 -19 -5 -70 -12 -112 -14 -64 -4 -78 -2 -78
10 0 9 6 13 15 9 10 -3 15 1 15 13 0 14 20 24 88 46 146 47 163 55 209 92 24
20 42 38 39 40 -2 3 -39 14 -83 26 -90 25 -126 47 -121 74 3 16 12 18 68 15
36 -2 122 -17 192 -35 111 -27 127 -34 122 -49 -3 -10 5 -55 17 -100 12 -46
23 -90 24 -98 1 -8 9 -31 17 -51 23 -53 13 -84 -34 -109 -22 -11 -45 -17 -51
-14 -7 4 -9 4 -5 -1 8 -8 2 -13 -71 -53 -22 -12 -41 -25 -41 -27 0 -3 297 -5
660 -5 l659 0 -4 88 c-5 108 -5 66 -1 969 4 875 3 883 -74 968 -15 17 -35 52
-44 78 -16 43 -87 127 -107 127 -4 0 -31 19 -61 42 -56 45 -117 77 -258 135
-47 19 -92 41 -100 48 -8 6 -23 15 -32 18 -10 4 -18 11 -18 16 0 5 19 -1 43
-14 23 -14 49 -25 57 -24 8 0 3 7 -12 15 -16 8 -28 23 -28 34 0 13 -5 18 -15
14 -8 -4 -15 -2 -15 4 0 6 6 12 13 15 9 3 9 7 0 17 -14 15 2 55 17 45 6 -3 7
1 4 10 -5 11 -10 13 -19 5 -10 -8 -15 -8 -20 1 -4 6 -2 15 5 19 8 5 9 10 2 14
-6 3 -9 22 -8 41 3 29 0 35 -16 35 -11 0 -16 5 -13 10 3 6 15 10 25 10 13 0
17 5 14 15 -4 8 -12 15 -20 15 -8 0 -14 10 -14 23 0 23 -17 47 -32 47 -4 0 -8
-7 -8 -16 0 -8 -5 -12 -10 -9 -8 5 -7 11 0 20 14 17 5 35 -19 35 -20 0 -44 24
-55 54 -3 10 -9 16 -12 13 -4 -3 -2 -19 4 -34 15 -44 -15 -168 -48 -202 -19
-19 -25 -32 -20 -46 11 -31 -24 -170 -40 -160 -5 3 -7 12 -3 20 13 35 -16 10
-50 -42 -47 -74 -70 -103 -82 -103 -5 0 -28 -18 -50 -40 -31 -31 -52 -42 -94
-50 -30 -5 -60 -10 -69 -10 -22 0 -82 70 -75 88 5 11 2 14 -10 9 -9 -3 -16 -3
-14 1 1 4 -10 21 -26 37 -15 16 -27 35 -27 42 0 7 -5 13 -11 13 -6 0 -9 6 -6
14 3 8 0 20 -7 26 -22 17 -54 101 -62 159 -7 51 -6 53 14 47 14 -5 24 -1 30
10 7 13 12 14 29 3 12 -7 28 -9 39 -4 11 4 27 7 37 6 25 -3 21 26 -5 43 -22
14 -103 30 -142 28 -14 -1 -17 4 -13 20 3 11 0 30 -7 42 -8 11 -14 49 -15 83
-2 57 0 63 24 79 25 17 30 16 98 -1 40 -10 79 -18 87 -17 8 0 66 8 129 16 63
9 117 14 119 11 3 -2 13 0 23 5 25 14 49 -13 49 -55 0 -44 9 -65 27 -65 15 0
52 -73 53 -103 0 -34 25 -11 31 29 3 21 12 53 19 69 7 17 13 68 13 115 0 78
-3 92 -39 168 -21 45 -43 82 -49 82 -5 0 -20 11 -33 24 -12 14 -44 37 -70 53
-44 26 -55 28 -152 28 -89 0 -112 -3 -151 -23 -61 -30 -208 -176 -237 -236
-31 -61 -32 -142 -3 -209 26 -60 27 -75 2 -53 -26 24 -73 29 -178 18 -113 -11
-164 -35 -239 -110 -55 -55 -124 -150 -124 -172 0 -5 -4 -10 -10 -10 -5 0 -10
-7 -10 -16 0 -8 -4 -13 -9 -9 -5 3 -11 -5 -14 -17 l-4 -23 -11 25 -11 25 0
-28 c-1 -16 5 -30 14 -33 10 -4 15 -20 15 -48 l-1 -41 -25 29 c-20 23 -23 31
-12 37 10 7 9 9 -5 9 -10 0 -27 16 -38 35 -12 19 -29 35 -39 35 -10 0 -24 9
-31 20 -11 16 -20 18 -44 12 -24 -7 -33 -4 -53 17 l-24 26 21 -38 c12 -21 21
-45 21 -53 0 -8 5 -14 10 -14 6 0 -18 -27 -53 -60 -35 -33 -87 -95 -116 -137
-28 -43 -55 -83 -59 -88 -5 -6 -14 -19 -21 -30 -12 -20 -12 -20 -5 0 4 11 9
41 9 66 1 25 5 51 9 57 12 20 -8 13 -35 -12 l-27 -25 -5 29 c-8 39 -39 47 -70
18 -13 -13 -47 -44 -74 -70 -33 -32 -58 -48 -76 -48 -30 0 -51 30 -42 60 5 16
2 20 -15 20 -11 0 -34 14 -51 31 -17 17 -33 29 -36 26 -3 -3 -23 5 -44 19 -42
26 -55 29 -64 14 -3 -6 1 -7 9 -4 9 3 16 3 16 0 0 -4 -12 -11 -26 -17 -47 -17
-70 8 -77 85 -3 36 -16 84 -27 107 -12 22 -19 43 -16 46 3 3 23 6 43 7 34 1
38 4 35 24 -3 18 4 26 32 37 20 9 36 18 36 21 0 15 -88 -9 -124 -34 -38 -26
-38 -26 -53 -7 -23 30 -53 98 -53 121 0 11 -5 25 -12 32 -20 20 20 51 72 57
25 3 59 8 77 11 21 3 42 -2 65 -16 18 -11 29 -20 23 -20 -26 -1 41 -40 70 -40
53 0 93 -19 107 -51 7 -16 21 -32 31 -35 9 -3 15 -9 13 -13 -3 -4 -1 -13 4
-21 14 -23 43 6 30 30 -22 40 -6 101 32 128 10 7 18 19 18 27 0 21 41 45 77
45 27 0 37 -6 53 -32 11 -18 20 -43 20 -56 0 -13 16 -41 37 -62 33 -37 40 -40
89 -40 50 0 53 2 59 29 3 16 0 45 -9 67 -8 21 -17 62 -21 89 -9 66 -30 146
-48 181 -8 16 -17 41 -21 56 -3 15 -21 43 -39 62 -17 19 -44 47 -58 63 -32 35
-117 60 -148 44 -13 -8 -27 -8 -38 -2 -10 5 -36 14 -58 20 -83 24 -274 -48
-362 -136 -24 -23 -47 -43 -50 -43 -12 0 -63 -53 -63 -66 0 -6 -12 -19 -26
-29 -21 -13 -29 -14 -38 -4 -8 9 -8 10 1 5 6 -3 14 -2 18 4 3 5 2 10 -3 10 -6
0 -13 7 -16 16 -6 15 -4 15 18 1 23 -15 24 -15 30 8 4 14 13 25 21 25 8 0 15
5 15 11 0 14 20 33 43 42 12 5 16 13 13 25 -4 13 1 23 19 32 21 11 34 30 21
30 -17 0 -65 -24 -61 -30 8 -12 -11 -21 -29 -14 -23 9 -20 24 5 24 13 0 23 8
26 20 4 16 8 18 20 9 10 -9 17 -9 25 -1 14 14 32 16 24 3 -4 -5 0 -11 6 -14 9
-3 7 -10 -7 -21 -11 -8 -15 -16 -9 -16 6 0 21 11 33 24 17 18 19 25 9 29 -10
4 -10 6 0 6 6 1 12 8 12 16 0 8 17 19 40 26 43 13 56 34 15 23 -25 -6 -36 10
-12 19 15 5 9 12 -19 21 -17 5 -23 1 -29 -16 -4 -13 -6 -31 -5 -40 1 -11 -6
-18 -16 -18 -11 0 -15 6 -11 19 4 18 -10 28 -45 35 -5 0 -8 4 -8 9 0 7 0 10 4
37 2 8 3 24 4 35 2 15 5 16 14 7 10 -10 10 -15 -2 -22 -12 -7 -12 -12 0 -34
15 -30 50 -35 50 -8 0 15 9 17 66 15 40 -1 76 -9 90 -18 21 -14 24 -14 24 0 0
8 7 15 15 15 8 0 15 7 15 15 0 8 -4 15 -10 15 -5 0 -7 6 -4 14 3 8 1 17 -5 21
-20 12 -12 33 10 28 16 -5 20 -2 17 13 -2 13 4 20 19 22 27 4 39 31 15 38 -9
3 -25 10 -34 15 -25 13 -128 12 -108 -1 8 -5 27 -10 43 -10 15 0 27 -4 27 -9
0 -6 -8 -10 -17 -10 -10 1 -28 -2 -40 -6 -16 -5 -23 -3 -23 6 0 8 -12 20 -27
27 -31 14 -117 17 -109 3z m56 -16 c0 -8 9 -15 19 -15 25 0 36 -16 17 -23 -16
-7 -70 36 -60 46 12 12 24 8 24 -8z m160 -44 c0 -5 -6 -11 -12 -14 -10 -3 -10
-9 0 -26 10 -18 18 -81 9 -81 -2 0 -22 9 -44 20 -37 18 -44 18 -69 5 -33 -17
-40 -14 -47 21 -3 16 0 27 9 31 8 3 14 11 14 19 0 9 11 14 31 14 17 0 28 -4
24 -10 -3 -5 -12 -10 -20 -10 -8 0 -17 -4 -20 -10 -4 -6 7 -9 27 -6 18 2 34
10 36 17 4 21 62 49 62 30z m-252 -28 c-4 -22 -22 -20 -26 1 -2 10 3 16 13 16
10 0 15 -7 13 -17z m-34 -124 c-3 -5 -11 -9 -19 -9 -9 0 -15 -14 -17 -42 -3
-39 -6 -43 -30 -46 -34 -4 -39 22 -8 38 13 7 20 21 20 39 0 15 2 30 5 33 9 9
55 -4 49 -13z m56 -39 c0 -11 -4 -20 -9 -20 -5 0 -7 9 -4 20 3 11 7 20 9 20 2
0 4 -9 4 -20z m-170 -22 c0 -16 -3 -19 -11 -11 -6 6 -8 16 -5 22 11 17 16 13
16 -11z m120 7 c0 -8 -4 -15 -10 -15 -5 0 -10 7 -10 15 0 8 5 15 10 15 6 0 10
-7 10 -15z m-236 -44 c3 -5 -5 -12 -19 -15 -14 -4 -25 -13 -25 -21 0 -8 -5
-15 -11 -15 -18 0 -5 45 16 52 29 9 33 9 39 -1z m-64 -71 c16 -14 18 -20 9
-20 -20 0 -69 23 -69 33 0 14 37 7 60 -13z m-44 -35 c1 -15 -3 -25 -12 -25
-14 0 -19 31 -7 43 12 13 18 7 19 -18z m199 5 c3 -5 -3 -10 -14 -10 -12 0 -21
5 -21 10 0 6 6 10 14 10 8 0 18 -4 21 -10z m-235 -31 c0 -5 -7 -9 -16 -9 -8 0
-12 -4 -9 -10 3 -5 1 -10 -4 -10 -21 0 -11 36 9 37 11 1 20 -2 20 -8z m77 5
c-3 -3 -12 -4 -19 -1 -8 3 -5 6 6 6 11 1 17 -2 13 -5z m213 -14 c0 -5 -2 -10
-4 -10 -3 0 -8 5 -11 10 -3 6 -1 10 4 10 6 0 11 -4 11 -10z m-270 -20 c0 -5
-5 -10 -11 -10 -5 0 -7 5 -4 10 3 6 8 10 11 10 2 0 4 -4 4 -10z m90 -25 c0 -5
-5 -3 -10 5 -5 8 -10 20 -10 25 0 6 5 3 10 -5 5 -8 10 -19 10 -25z m-123 -17
c-3 -8 -6 -5 -6 6 -1 11 2 17 5 13 3 -3 4 -12 1 -19z m251 -50 c-9 -7 -18 -22
-21 -33 -4 -16 -5 -15 -6 6 -1 29 6 39 28 39 13 0 13 -2 -1 -12z m-228 -28 c0
-5 -5 -10 -11 -10 -5 0 -7 5 -4 10 3 6 8 10 11 10 2 0 4 -4 4 -10z m-879 -43
c-10 -9 -11 -8 -5 6 3 10 9 15 12 12 3 -3 0 -11 -7 -18z m71 -12 c2 -19 0 -35
-4 -35 -4 0 -8 16 -8 35 0 19 2 35 4 35 2 0 6 -16 8 -35z m801 10 c-3 -9 -8
-14 -10 -11 -3 3 -2 9 2 15 9 16 15 13 8 -4z m-1127 -22 c-10 -10 -19 5 -10
18 6 11 8 11 12 0 2 -7 1 -15 -2 -18z m-189 -49 c-3 -3 -12 -4 -19 -1 -8 3 -5
6 6 6 11 1 17 -2 13 -5z m3618 -134 c-27 -12 -43 -12 -25 0 8 5 22 9 30 9 10
0 8 -3 -5 -9z m-2445 -10 c28 -17 1 -22 -47 -7 l-48 15 40 1 c22 0 47 -3 55
-9z m438 -115 c18 -15 49 -59 68 -96 l34 -69 -25 0 c-13 0 -43 -7 -65 -16 -31
-13 -40 -22 -40 -40 0 -21 3 -23 26 -14 26 10 48 5 39 -9 -2 -5 9 -6 26 -2 42
9 37 24 -12 36 l-42 10 27 13 c43 19 77 -2 96 -60 8 -26 18 -50 22 -53 7 -7 6
-3 -12 81 -14 62 -18 84 -20 104 -1 11 -3 12 -7 2 -3 -8 -13 2 -25 25 -11 21
-31 51 -44 66 -40 47 -28 64 19 26 28 -22 97 -155 97 -188 0 -11 6 -26 14 -34
9 -8 12 -24 9 -36 -3 -12 -1 -21 6 -21 8 0 10 -12 6 -37 -5 -29 -4 -34 5 -23
8 12 9 9 4 -12 -3 -16 -2 -28 2 -28 5 0 11 -55 12 -123 4 -129 -11 -240 -34
-268 -8 -9 -11 -18 -8 -22 4 -3 -6 -28 -22 -54 -32 -55 -42 -45 -20 20 30 90
43 175 45 297 0 69 -3 139 -8 155 -8 25 -9 16 -10 -46 -1 -60 -5 -82 -21 -102
-11 -14 -20 -28 -20 -32 0 -3 -11 -30 -25 -60 -29 -61 -67 -85 -135 -85 -39 0
-48 6 -117 72 -41 40 -70 74 -65 76 5 1 -2 26 -17 55 -20 40 -26 67 -26 117
l0 65 45 12 c25 6 39 12 33 12 -7 1 -13 6 -13 12 0 5 4 8 9 5 17 -11 39 5 34
25 -5 19 -31 25 -92 21 -22 -1 -23 1 -17 40 6 39 89 168 108 168 4 0 8 5 8 11
0 6 -7 8 -16 5 -14 -5 -15 -4 -4 9 13 16 35 21 26 6 -3 -4 11 -7 32 -6 53 3
52 2 52 33 1 26 1 26 13 6 7 -12 27 -34 45 -49z m1812 28 c33 -15 70 -45 70
-58 0 -3 13 -23 29 -45 25 -35 29 -51 36 -140 4 -63 3 -106 -3 -113 -6 -7 -11
-23 -13 -37 -2 -14 -13 -39 -25 -55 -12 -17 -24 -46 -28 -65 l-7 -35 20 25
c26 31 29 6 4 -30 -25 -37 -37 -47 -95 -85 -70 -46 -135 -49 -168 -8 -14 18
-19 35 -15 51 3 13 0 31 -7 39 -11 14 -7 15 30 8 24 -4 59 -7 78 -7 35 0 84
25 84 42 0 12 -5 12 -167 18 -28 1 -58 8 -65 15 -8 6 -22 17 -33 23 -10 6 -22
17 -25 25 -4 8 -13 25 -20 38 -15 30 -15 86 1 126 6 17 13 45 16 63 2 18 15
62 29 96 29 73 53 90 149 110 82 16 85 16 125 -1z m950 -127 c0 -12 -5 -7 -19
24 -11 24 -11 24 3 6 9 -11 16 -24 16 -30z m-5323 -78 c-3 -7 -5 -2 -5 12 0
14 2 19 5 13 2 -7 2 -19 0 -25z m-40 -70 c-3 -8 -6 -5 -6 6 -1 11 2 17 5 13 3
-3 4 -12 1 -19z m2388 -8 c-50 -23 -55 -24 -55 -6 0 18 16 24 60 24 l35 1 -40
-19z m-1485 -97 c0 -21 7 -56 14 -78 9 -25 11 -44 5 -49 -5 -6 -9 -39 -9 -74
0 -57 -3 -68 -29 -97 -16 -18 -31 -39 -33 -47 -3 -7 -9 -9 -14 -5 -5 4 -3 11
3 15 7 4 14 47 17 102 7 121 15 219 21 248 8 36 25 25 25 -15z m2404 -11 c2
-4 -4 -8 -14 -8 -10 0 -16 4 -14 8 3 4 9 8 14 8 5 0 11 -4 14 -8z m381 -2 c4
-7 13 -6 26 1 29 15 49 4 49 -26 0 -18 -24 -51 -85 -116 -47 -50 -85 -95 -85
-100 0 -9 74 37 134 85 26 20 40 26 47 19 18 -18 1 -49 -49 -95 -90 -84 -107
-106 -155 -201 -34 -68 -65 -113 -106 -156 -43 -43 -69 -81 -97 -143 -20 -45
-48 -100 -61 -120 -12 -21 -23 -39 -23 -41 0 -6 -93 -158 -142 -232 -65 -98
-98 -144 -133 -183 -34 -37 -108 -151 -130 -198 -32 -69 -71 -73 -189 -16 -92
44 -154 91 -275 207 -107 103 -163 181 -217 307 -24 55 -53 115 -63 132 -34
56 -69 160 -72 211 -5 94 -2 103 41 131 37 25 42 26 90 14 27 -7 48 -16 45
-20 -3 -5 3 -6 14 -3 12 3 24 -3 34 -17 9 -13 20 -19 27 -15 13 8 39 -22 40
-47 0 -10 5 -18 11 -18 6 0 8 -8 4 -19 -3 -10 1 -24 10 -31 8 -7 15 -19 15
-27 0 -36 49 -113 115 -182 137 -142 191 -223 181 -273 l-6 -31 57 53 c223
204 303 294 429 482 96 144 128 213 139 298 4 30 13 62 20 70 8 8 22 34 32 56
17 39 161 184 182 184 5 0 35 16 67 35 63 38 70 40 79 25z m-1375 -64 c-7 -7
-10 4 -9 30 1 39 1 39 10 9 5 -18 5 -33 -1 -39z m2271 -2 c-11 -25 -13 -26
-28 -11 -14 14 -15 21 -4 43 11 25 13 26 28 11 14 -14 15 -21 4 -43z m-1226
-44 c-3 -5 -1 -10 5 -10 6 0 10 10 8 22 -2 11 3 23 10 25 17 6 14 -16 -7 -56
l-18 -34 -12 33 c-17 49 -15 65 5 46 8 -9 12 -20 9 -26z m-1118 -32 c-2 -13
-4 -3 -4 22 0 25 2 35 4 23 2 -13 2 -33 0 -45z m1939 27 c16 -12 17 -16 4 -24
-17 -11 -40 3 -40 25 0 18 11 18 36 -1z m-1856 -70 c6 -3 10 -18 10 -32 0 -35
30 -145 43 -158 7 -7 8 -4 3 8 -8 25 -18 106 -10 87 25 -59 34 -81 53 -122 24
-55 25 -65 9 -70 -6 -2 4 -19 23 -38 19 -19 24 -26 12 -16 -12 10 -27 15 -32
11 -6 -3 -11 -1 -11 5 0 6 -4 9 -9 5 -5 -3 -12 3 -15 12 -3 10 -17 30 -31 46
-20 21 -31 54 -50 145 -14 64 -24 133 -24 152 l1 35 9 -32 c5 -18 14 -35 19
-38z m2000 45 c0 -13 -30 -13 -50 0 -11 7 -7 10 18 10 17 0 32 -4 32 -10z
m-4143 -92 c-3 -8 -6 -5 -6 6 -1 11 2 17 5 13 3 -3 4 -12 1 -19z m618 -207
c-11 -46 -26 -5 -32 87 -8 130 7 150 24 32 7 -52 11 -106 8 -119z m1965 155
c-6 -20 -16 -36 -21 -36 -5 0 -2 16 6 36 8 20 15 39 15 42 0 3 3 3 6 -1 3 -3
1 -22 -6 -41z m1708 27 c-2 -10 3 -23 12 -30 10 -8 11 -12 3 -13 -7 0 -13 -3
-13 -7 0 -5 21 -8 47 -8 30 0 48 -5 51 -13 3 -11 0 -12 -16 -3 -16 8 -25 7
-44 -9 -12 -11 -19 -19 -14 -20 5 0 3 -7 -4 -15 -7 -8 -16 -13 -20 -10 -4 3
-14 -3 -21 -12 -12 -15 -12 -16 4 -10 12 5 6 -9 -20 -41 -49 -62 -47 -60 -39
-38 7 20 7 20 -16 0 -12 -10 -38 -33 -57 -51 -51 -46 -51 -32 -2 22 26 29 40
52 37 61 -3 9 -6 19 -6 24 0 4 -11 11 -25 14 -18 5 -25 13 -25 31 0 14 4 25 9
25 5 0 12 9 16 20 6 18 119 100 138 100 5 0 7 -8 5 -17z m-4511 -25 c-3 -8 -6
-5 -6 6 -1 11 2 17 5 13 3 -3 4 -12 1 -19z m2613 -70 c49 -4 72 -27 54 -55 -6
-10 -9 -24 -7 -30 8 -22 33 -14 46 15 11 24 12 19 15 -57 2 -46 1 -90 -2 -98
-9 -24 -32 -14 -49 22 -9 19 -21 35 -27 35 -5 0 -10 7 -10 15 0 8 -4 15 -10
15 -13 0 -13 -26 0 -51 8 -15 7 -19 -5 -19 -8 0 -15 5 -15 10 0 6 -19 19 -42
29 -33 14 -47 28 -60 57 -20 49 -22 125 -2 117 17 -6 18 9 2 26 -7 7 6 4 28
-7 23 -12 61 -22 84 -24z m1960 -32 c0 -2 -7 -7 -16 -10 -8 -3 -12 -2 -9 4 6
10 25 14 25 6z m53 -63 c-7 -2 -19 -2 -25 0 -7 3 -2 5 12 5 14 0 19 -2 13 -5z
m75 -43 c23 -10 42 -23 42 -27 0 -4 11 -21 25 -37 14 -16 26 -39 26 -50 1 -17
2 -18 6 -3 5 21 23 23 23 2 0 -8 4 -15 10 -15 14 0 30 -69 30 -133 0 -63 -16
-110 -49 -144 -11 -12 -43 -77 -71 -145 -28 -68 -55 -125 -60 -126 -6 -2 -8
-7 -5 -12 2 -4 -7 -29 -20 -56 -14 -27 -25 -54 -25 -60 0 -6 -12 -29 -26 -50
-15 -21 -47 -79 -72 -128 -26 -48 -52 -90 -59 -93 -7 -3 -11 -8 -9 -12 3 -4
-8 -22 -23 -39 -15 -18 -40 -58 -55 -88 l-28 -56 -97 5 c-53 3 -112 8 -131 10
-19 2 -23 2 -7 0 15 -2 27 -9 27 -15 0 -10 -144 -4 -197 9 -26 6 -31 23 -8 23
8 0 15 7 15 17 0 9 -3 13 -7 10 -3 -4 -13 2 -20 13 -11 16 -12 27 -3 53 12 37
89 100 129 105 14 2 34 12 44 23 10 11 31 19 48 19 43 0 82 31 97 76 14 42 18
51 52 134 12 30 26 70 30 88 4 18 13 38 18 45 6 7 13 31 16 53 2 23 12 58 20
79 9 21 16 48 16 61 0 12 4 26 10 29 6 4 8 40 6 88 -3 81 15 202 34 221 5 5
10 20 10 33 0 33 48 79 100 97 60 20 87 19 138 -4z m-4727 -23 c-10 -9 -11 -8
-5 6 3 10 9 15 12 12 3 -3 0 -11 -7 -18z m2874 -47 c-4 -6 -9 -45 -11 -86 -5
-71 -19 -132 -29 -122 -3 2 2 44 10 93 8 49 12 91 9 94 -2 2 -11 -4 -19 -15
-8 -10 -15 -15 -15 -9 0 11 41 53 53 54 5 1 5 -4 2 -9z m-59 -101 c-8 -19 -15
-29 -15 -22 -1 18 19 67 25 61 3 -3 -2 -21 -10 -39z m-19 -71 c-3 -7 -5 -2 -5
12 0 14 2 19 5 13 2 -7 2 -19 0 -25z m-32 -66 c-2 -2 -13 -1 -25 3 -17 5 -19
9 -9 21 10 12 13 12 24 -3 8 -10 12 -20 10 -21z m-575 -442 c0 -5 -4 -10 -10
-10 -5 0 -10 5 -10 10 0 6 5 10 10 10 6 0 10 -4 10 -10z m1000 -369 c-5 -11
-15 -23 -21 -26 -5 -4 -30 -34 -54 -67 -30 -42 -46 -75 -51 -107 -8 -56 -20
-81 -39 -81 -9 0 -15 -9 -15 -22 0 -32 -15 -52 -34 -45 -11 4 -16 24 -18 74
l-3 68 -18 -57 c-20 -62 -39 -88 -64 -88 -16 0 -14 33 4 110 l6 25 -26 -27
c-14 -16 -31 -28 -37 -28 -19 0 -11 -88 14 -143 13 -30 21 -59 17 -65 -3 -6
-26 -18 -49 -28 -37 -14 -62 -16 -152 -10 -83 5 -122 3 -170 -10 -50 -12 -64
-13 -70 -3 -14 21 0 37 51 60 65 30 64 49 0 49 -50 0 -64 9 -66 43 -1 11 4 17
14 15 9 -2 23 4 31 12 13 13 13 17 -3 33 -26 26 -7 57 36 58 l32 1 -31 8 c-69
16 -71 18 -40 46 23 22 39 27 104 31 91 5 142 19 142 38 0 14 -4 16 -76 34
-43 11 -90 53 -80 70 10 16 102 3 184 -26 58 -20 76 -31 88 -55 12 -23 12 -28
2 -22 -8 5 -6 -2 4 -18 10 -15 15 -34 12 -42 -12 -31 12 -15 51 34 32 40 50
54 90 65 27 8 60 26 75 39 33 32 100 68 114 63 6 -2 20 -1 31 4 11 4 21 8 23
8 1 1 -2 -8 -8 -18z m733 -168 c-7 -2 -19 -2 -25 0 -7 3 -2 5 12 5 14 0 19 -2
13 -5z m-1653 -203 c0 -5 -4 -10 -10 -10 -5 0 -10 5 -10 10 0 6 5 10 10 10 6
0 10 -4 10 -10z m10 -51 c0 -11 -4 -18 -9 -14 -6 3 -9 14 -8 25 2 24 17 15 17
-11z m-5 -69 c3 -5 1 -10 -4 -10 -6 0 -11 5 -11 10 0 6 2 10 4 10 3 0 8 -4 11
-10z m345 -59 c0 -6 -4 -13 -10 -16 -5 -3 -10 1 -10 9 0 9 5 16 10 16 6 0 10
-4 10 -9z m184 -19 c-6 -4 -15 -15 -21 -26 -9 -17 -11 -16 -15 8 -4 18 -1 26
8 26 8 0 14 5 14 12 0 9 3 9 12 0 9 -9 10 -15 2 -20z m-144 14 c0 -2 -7 -6
-15 -10 -8 -3 -15 -1 -15 4 0 6 7 10 15 10 8 0 15 -2 15 -4z m-44 -51 c16 -13
17 -16 4 -25 -20 -13 -25 -13 -40 5 -11 14 -6 35 9 35 4 0 16 -7 27 -15z
m-646 -15 c0 -5 -4 -10 -10 -10 -5 0 -10 5 -10 10 0 6 5 10 10 10 6 0 10 -4
10 -10z m46 -8 c-10 -2 -22 0 -28 6 -6 6 0 7 19 4 21 -5 23 -7 9 -10z"/>
<path d="M2900 2199 c0 -5 5 -7 10 -4 6 3 10 8 10 11 0 2 -4 4 -10 4 -5 0 -10
-5 -10 -11z"/>
<path d="M2940 2159 c-32 -14 -36 -18 -15 -13 17 3 39 7 49 8 11 0 21 7 24 14
5 16 -4 15 -58 -9z"/>
<path d="M2750 2131 c0 -15 21 -25 29 -14 3 6 13 13 21 16 8 3 0 6 -17 6 -18
1 -33 -3 -33 -8z"/>
<path d="M2952 2108 c-15 -15 -15 -28 0 -28 6 0 8 3 5 7 -4 3 -2 12 4 20 14
16 7 17 -9 1z"/>
<path d="M4740 2443 c-14 -3 -29 -9 -35 -15 -11 -11 43 -2 80 13 l20 8 -20 -1
c-11 0 -31 -3 -45 -5z"/>
<path d="M4526 2425 c18 -14 18 -14 -8 -15 -30 0 -78 -19 -78 -30 0 -4 7 -13
15 -20 12 -10 15 -10 15 4 0 9 5 16 10 16 6 0 10 -4 10 -10 0 -5 10 -9 23 -9
16 1 18 2 5 6 -10 2 -18 9 -18 14 0 5 11 7 24 3 18 -4 25 -1 29 17 8 29 1 39
-26 39 -20 0 -20 0 -1 -15z"/>
<path d="M4721 2396 c-12 -14 -10 -16 9 -16 16 0 20 -4 16 -15 -4 -11 2 -15
24 -15 34 0 48 17 29 35 -23 23 -64 28 -78 11z"/>
<path d="M4585 2215 c35 -17 64 -18 85 -5 24 15 5 22 -24 9 -20 -10 -29 -10
-38 -1 -7 7 -21 12 -32 11 -17 0 -15 -3 9 -14z"/>
<path d="M2630 1658 c0 -9 5 -20 10 -23 13 -8 13 5 0 25 -8 13 -10 13 -10 -2z"/>
<path d="M2720 1821 c0 -5 5 -13 10 -16 6 -3 10 -2 10 4 0 5 -4 13 -10 16 -5
3 -10 2 -10 -4z"/>
<path d="M2896 1821 c-4 -7 -5 -15 -2 -18 9 -9 19 4 14 18 -4 11 -6 11 -12 0z"/>
<path d="M5098 1613 c7 -3 16 -2 19 1 4 3 -2 6 -13 5 -11 0 -14 -3 -6 -6z"/>
<path d="M3386 3575 c6 -26 -13 -55 -37 -55 -10 0 -10 -3 -1 -12 7 -7 12 -22
12 -35 0 -14 6 -23 15 -23 10 0 15 9 14 28 l-1 27 -8 -25 c-8 -24 -8 -24 -9
-2 -1 12 -1 25 -1 30 0 4 9 6 20 6 17 -1 20 5 20 42 0 33 -4 44 -15 44 -11 0
-14 -7 -9 -25z"/>
<path d="M2781 3559 c-13 -5 -22 -12 -19 -14 8 -9 68 7 62 16 -6 11 -12 11
-43 -2z"/>
<path d="M2865 3560 c-3 -5 -1 -10 4 -10 6 0 11 5 11 10 0 6 -2 10 -4 10 -3 0
-8 -4 -11 -10z"/>
<path d="M2711 3553 c0 -6 -8 -19 -17 -27 -17 -17 -8 -21 14 -7 8 5 12 17 9
27 -3 11 -5 14 -6 7z"/>
<path d="M2570 3540 c0 -5 5 -10 10 -10 6 0 10 5 10 10 0 6 -4 10 -10 10 -5 0
-10 -4 -10 -10z"/>
<path d="M2941 3534 c0 -11 3 -14 6 -6 3 7 2 16 -1 19 -3 4 -6 -2 -5 -13z"/>
<path d="M2530 3530 c0 -5 5 -10 10 -10 6 0 10 5 10 10 0 6 -4 10 -10 10 -5 0
-10 -4 -10 -10z"/>
<path d="M2816 3500 c-19 -6 -19 -7 -1 -13 20 -8 29 -4 24 11 -2 5 -13 6 -23
2z"/>
<path d="M3400 3475 c0 -14 4 -25 9 -25 4 0 6 11 3 25 -2 14 -6 25 -8 25 -2 0
-4 -11 -4 -25z"/>
<path d="M2657 3473 c-15 -14 -6 -25 18 -21 13 3 26 0 28 -5 3 -9 47 -19 47
-11 0 4 -71 44 -79 44 -4 0 -11 -3 -14 -7z"/>
<path d="M3320 3455 c0 -8 7 -15 15 -15 8 0 15 7 15 15 0 8 -7 15 -15 15 -8 0
-15 -7 -15 -15z"/>
<path d="M2075 3440 c-8 -13 5 -13 25 0 13 8 13 10 -2 10 -9 0 -20 -4 -23 -10z"/>
<path d="M2827 3443 c-10 -9 -9 -23 2 -23 5 0 11 7 15 15 5 15 -5 20 -17 8z"/>
<path d="M2600 3426 c0 -17 14 -29 23 -20 8 8 -3 34 -14 34 -5 0 -9 -6 -9 -14z"/>
<path d="M2655 3433 c11 -3 23 -10 27 -16 4 -6 10 -8 13 -5 13 13 -6 28 -33
27 -21 -1 -23 -2 -7 -6z"/>
<path d="M3382 3415 c0 -16 2 -22 5 -12 2 9 2 23 0 30 -3 6 -5 -1 -5 -18z"/>
<path d="M3400 3418 c0 -19 2 -20 10 -8 13 19 13 30 0 30 -5 0 -10 -10 -10
-22z"/>
<path d="M2020 3400 c0 -5 5 -10 11 -10 5 0 7 5 4 10 -3 6 -8 10 -11 10 -2 0
-4 -4 -4 -10z"/>
<path d="M2655 3390 c-3 -5 1 -10 9 -10 9 0 16 5 16 10 0 6 -4 10 -9 10 -6 0
-13 -4 -16 -10z"/>
<path d="M3202 3386 c2 -12 17 -23 45 -31 27 -8 40 -9 36 -2 -4 6 4 8 23 3 24
-5 26 -4 11 5 -10 6 -25 8 -33 5 -17 -7 -65 10 -77 27 -5 8 -7 5 -5 -7z"/>
<path d="M3322 3388 c2 -6 13 -15 25 -19 17 -6 20 -4 16 12 -3 11 -14 19 -25
19 -11 0 -18 -5 -16 -12z"/>
<path d="M3400 3376 c0 -9 5 -16 10 -16 6 0 10 4 10 9 0 6 -4 13 -10 16 -5 3
-10 -1 -10 -9z"/>
<path d="M2840 3370 c0 -5 5 -10 10 -10 6 0 10 5 10 10 0 6 -4 10 -10 10 -5 0
-10 -4 -10 -10z"/>
<path d="M3210 3335 c-7 -8 -24 -15 -39 -15 -15 0 -31 -8 -39 -20 -10 -16 -10
-20 2 -20 7 0 19 7 26 15 7 8 20 15 29 15 17 1 51 23 51 34 0 11 -17 6 -30 -9z"/>
<path d="M2608 3304 c2 -13 8 -24 13 -24 14 0 10 37 -4 43 -10 4 -13 -2 -9
-19z"/>
<path d="M1849 3278 c-1 -2 -3 -15 -5 -30 -2 -23 0 -25 11 -15 9 9 10 14 1 20
-8 5 -7 10 4 17 10 6 11 10 3 10 -7 0 -14 -1 -14 -2z"/>
<path d="M2521 3271 c-8 -5 -9 -11 -3 -15 5 -3 15 1 22 9 14 16 3 20 -19 6z"/>
<path d="M2588 3225 c-2 -22 0 -34 6 -32 14 4 21 67 8 67 -6 0 -12 -16 -14
-35z"/>
<path d="M2545 3220 c3 -5 8 -10 11 -10 2 0 4 5 4 10 0 6 -5 10 -11 10 -5 0
-7 -4 -4 -10z"/>
<path d="M3040 3219 c0 -5 5 -7 10 -4 6 3 10 8 10 11 0 2 -4 4 -10 4 -5 0 -10
-5 -10 -11z"/>
<path d="M1600 3160 c0 -5 5 -10 10 -10 6 0 10 5 10 10 0 6 -4 10 -10 10 -5 0
-10 -4 -10 -10z"/>
<path d="M1628 3118 c8 -8 17 -8 34 0 22 10 21 11 -11 11 -27 1 -32 -2 -23
-11z"/>
<path d="M1760 3121 c0 -5 5 -13 10 -16 6 -3 10 -2 10 4 0 5 -4 13 -10 16 -5
3 -10 2 -10 -4z"/>
<path d="M1610 3085 c7 -9 15 -13 17 -11 7 7 -7 26 -19 26 -6 0 -6 -6 2 -15z"/>
<path d="M1410 3064 c0 -12 7 -24 15 -28 19 -7 19 5 0 30 -14 19 -14 19 -15
-2z"/>
<path d="M1528 3073 c7 -3 16 -2 19 1 4 3 -2 6 -13 5 -11 0 -14 -3 -6 -6z"/>
<path d="M715 3061 c-11 -5 -28 -18 -37 -29 -16 -20 -16 -21 9 -19 14 1 28 -3
30 -10 2 -7 -3 -10 -14 -7 -19 5 -73 -39 -73 -59 0 -7 6 -4 14 6 7 9 21 17 32
17 14 0 15 -3 6 -12 -7 -7 -12 -21 -12 -32 0 -17 6 -14 34 17 18 20 41 37 50
37 10 0 15 -4 12 -9 -3 -4 6 -6 19 -3 27 5 35 -15 10 -24 -17 -7 -85 -105 -85
-123 0 -6 12 0 28 14 15 14 39 29 55 32 15 3 27 8 27 12 0 3 7 15 15 25 15 19
15 19 40 -4 14 -13 25 -18 25 -11 0 8 7 10 19 6 14 -4 21 0 26 15 3 11 16 25
28 32 l22 12 -25 6 c-14 3 -26 14 -28 23 -3 13 4 17 28 17 28 0 31 -2 20 -15
-10 -12 -9 -15 4 -15 9 0 19 7 22 15 10 25 -40 63 -88 69 -24 3 -61 8 -83 11
-93 13 -111 14 -130 6z"/>
<path d="M1455 3050 c-3 -5 -1 -10 4 -10 6 0 11 5 11 10 0 6 -2 10 -4 10 -3 0
-8 -4 -11 -10z"/>
<path d="M1265 2980 c-3 -5 -1 -10 4 -10 6 0 11 5 11 10 0 6 -2 10 -4 10 -3 0
-8 -4 -11 -10z"/>
<path d="M1140 2940 c0 -5 5 -10 11 -10 5 0 7 5 4 10 -3 6 -8 10 -11 10 -2 0
-4 -4 -4 -10z"/>
<path d="M1187 2900 c-3 -11 -1 -20 4 -20 5 0 9 9 9 20 0 11 -2 20 -4 20 -2 0
-6 -9 -9 -20z"/>
<path d="M5605 2900 c3 -5 10 -10 16 -10 5 0 9 5 9 10 0 6 -7 10 -16 10 -8 0
-12 -4 -9 -10z"/>
<path d="M457 2863 c-4 -3 -7 -11 -7 -17 0 -6 5 -5 12 2 6 6 9 14 7 17 -3 3
-9 2 -12 -2z"/>
<path d="M420 2850 c0 -5 5 -10 10 -10 6 0 10 5 10 10 0 6 -4 10 -10 10 -5 0
-10 -4 -10 -10z"/>
<path d="M5496 2851 c-3 -5 1 -11 9 -15 8 -3 15 -1 15 4 0 13 -18 22 -24 11z"/>
<path d="M410 2809 c0 -5 5 -7 10 -4 6 3 10 8 10 11 0 2 -4 4 -10 4 -5 0 -10
-5 -10 -11z"/>
<path d="M5248 2815 c-2 -3 -29 -9 -59 -15 -54 -11 -96 -38 -72 -47 8 -3 11
-15 8 -31 -5 -26 -5 -26 5 -4 5 13 16 22 22 19 7 -2 21 2 31 11 15 14 19 13
37 -3 15 -14 23 -15 34 -6 7 6 21 9 30 5 19 -7 23 21 4 30 -7 3 -1 3 14 0 32
-7 79 14 57 26 -18 9 -105 21 -111 15z"/>
<path d="M2190 2791 c30 -10 59 -15 65 -12 15 8 -47 30 -85 30 -33 0 -31 -1
20 -18z"/>
<path d="M5738 2793 c7 -3 16 -2 19 1 4 3 -2 6 -13 5 -11 0 -14 -3 -6 -6z"/>
<path d="M2109 2769 c-11 -6 -8 -9 8 -9 12 0 25 -5 28 -10 5 -8 11 -7 20 0 8
7 24 9 37 5 15 -5 20 -4 13 3 -14 13 -90 22 -106 11z"/>
<path d="M2340 2646 c0 -8 5 -18 10 -21 6 -3 10 1 10 9 0 8 -4 18 -10 21 -5 3
-10 -1 -10 -9z"/>
<path d="M1028 2633 c-10 -2 -18 -9 -18 -14 0 -12 2 -12 41 6 33 14 18 19 -23
8z"/>
<path d="M3193 2627 c-18 -6 -33 -17 -33 -25 0 -21 41 -10 58 16 8 12 13 21
11 21 -2 -1 -19 -7 -36 -12z"/>
<path d="M1009 2581 l-24 -19 28 1 c15 1 27 6 27 10 0 5 5 5 10 2 6 -4 8 -11
5 -16 -9 -13 9 -11 24 4 10 9 15 9 18 0 6 -16 33 -5 33 13 0 9 -12 14 -34 14
-19 0 -41 2 -49 5 -7 3 -25 -3 -38 -14z"/>
<path d="M763 2563 c-12 -2 -27 -11 -33 -19 -10 -12 -6 -13 28 -11 23 1 44 6
48 10 4 4 17 7 28 7 17 0 18 2 6 10 -15 10 -37 11 -77 3z"/>
<path d="M5450 2560 c0 -5 5 -10 11 -10 5 0 7 5 4 10 -3 6 -8 10 -11 10 -2 0
-4 -4 -4 -10z"/>
<path d="M4146 2545 c-9 -26 -7 -32 5 -12 6 10 9 21 6 23 -2 3 -7 -2 -11 -11z"/>
<path d="M2326 2527 c-16 -12 -16 -14 4 -40 l21 -27 -38 0 -38 -1 33 -14 c40
-18 63 -10 58 18 -3 12 -5 34 -5 50 -1 30 -9 33 -35 14z"/>
<path d="M5116 2524 c-22 -13 -34 -14 -53 -5 -32 15 -38 14 -23 -4 16 -19 63
-19 100 0 17 9 30 18 30 20 0 9 -25 4 -54 -11z"/>
<path d="M4981 2481 c-10 -7 -8 -10 9 -16 12 -4 28 -22 36 -40 11 -27 21 -35
49 -41 19 -3 43 -3 52 2 14 6 8 9 -22 13 -26 4 -41 12 -43 22 -2 14 11 18 83
24 47 4 85 11 85 17 0 5 -9 6 -21 3 -11 -4 -56 -7 -99 -8 -60 0 -84 3 -98 16
-11 10 -23 13 -31 8z"/>
<path d="M5245 2480 c-3 -5 1 -10 9 -10 9 0 16 5 16 10 0 6 -4 10 -9 10 -6 0
-13 -4 -16 -10z"/>
<path d="M3293 2467 c2 -7 21 -15 41 -18 21 -3 42 -12 47 -20 6 -10 11 -11 20
-2 14 14 -10 28 -70 42 -31 7 -41 6 -38 -2z"/>
<path d="M3420 2420 c0 -5 5 -10 11 -10 5 0 7 5 4 10 -3 6 -8 10 -11 10 -2 0
-4 -4 -4 -10z"/>
<path d="M2320 2409 c0 -5 5 -7 10 -4 6 3 10 8 10 11 0 2 -4 4 -10 4 -5 0 -10
-5 -10 -11z"/>
<path d="M985 2370 c-22 -24 -16 -33 18 -25 30 8 45 45 18 45 -10 0 -26 -9
-36 -20z"/>
<path d="M1085 2370 c3 -5 8 -10 11 -10 2 0 4 5 4 10 0 6 -5 10 -11 10 -5 0
-7 -4 -4 -10z"/>
<path d="M787 2344 c-10 -13 -14 -24 -9 -24 13 0 35 27 30 39 -1 5 -11 -2 -21
-15z"/>
<path d="M1067 2343 c-5 -4 -34 -16 -65 -25 l-57 -17 44 2 c53 2 60 -9 26 -46
-26 -28 -19 -35 16 -17 10 6 19 19 19 28 0 10 7 28 16 40 15 22 16 51 1 35z"/>
<path d="M814 2308 c-9 -15 17 -18 37 -5 20 15 20 15 -6 13 -15 0 -29 -4 -31
-8z"/>
<path d="M457 2253 c-4 -3 -7 -11 -7 -17 0 -6 5 -5 12 2 6 6 9 14 7 17 -3 3
-9 2 -12 -2z"/>
<path d="M440 2185 c0 -8 2 -15 4 -15 2 0 6 7 10 15 3 8 1 15 -4 15 -6 0 -10
-7 -10 -15z"/>
<path d="M395 2150 c-4 -23 -5 -43 -2 -46 2 -3 7 14 11 37 4 23 5 44 2 46 -2
2 -7 -14 -11 -37z"/>
<path d="M6306 2104 c-10 -25 -8 -29 25 -63 17 -18 37 -47 44 -64 12 -28 14
-29 15 -9 0 22 -6 32 -42 73 -10 10 -18 27 -18 37 0 15 -2 15 -11 2 -8 -12 -9
-9 -5 13 7 29 2 37 -8 11z"/>
<path d="M371 2045 c-7 -25 -11 -48 -8 -51 7 -7 30 73 25 87 -2 6 -9 -11 -17
-36z"/>
<path d="M2170 1955 c0 -8 5 -15 10 -15 6 0 10 7 10 15 0 8 -4 15 -10 15 -5 0
-10 -7 -10 -15z"/>
<path d="M240 1911 c0 -17 2 -31 4 -31 8 0 13 51 5 56 -5 3 -9 -9 -9 -25z"/>
<path d="M797 1753 c-10 -9 -9 -41 1 -47 5 -3 9 8 10 24 1 32 -1 34 -11 23z"/>
<path d="M490 1736 c0 -2 8 -10 18 -17 15 -13 16 -12 3 4 -13 16 -21 21 -21
13z"/>
<path d="M190 1720 c0 -5 5 -10 10 -10 6 0 10 5 10 10 0 6 -4 10 -10 10 -5 0
-10 -4 -10 -10z"/>
<path d="M2191 1694 c0 -11 3 -14 6 -6 3 7 2 16 -1 19 -3 4 -6 -2 -5 -13z"/>
<path d="M2281 1644 c0 -11 3 -14 6 -6 3 7 2 16 -1 19 -3 4 -6 -2 -5 -13z"/>
<path d="M166 1503 c-14 -43 -26 -88 -26 -101 0 -15 -6 -22 -20 -22 -11 0 -20
-4 -20 -10 0 -5 5 -10 10 -10 6 0 10 -11 10 -25 0 -14 -5 -25 -10 -25 -12 0
-7 -91 5 -111 5 -8 1 -9 -14 -4 -26 8 -27 0 -1 -27 25 -27 25 -38 3 -38 -14 0
-15 -2 -4 -9 8 -5 11 -16 6 -30 -5 -15 -2 -26 9 -34 13 -10 14 -18 6 -47 -6
-22 -6 -38 0 -44 6 -6 10 -19 10 -30 -1 -21 -1 -21 -17 -1 -14 18 -15 18 -9 2
3 -10 6 -27 6 -38 0 -24 20 -25 20 -1 1 15 2 15 16 -3 13 -18 13 -20 -7 -27
-14 -6 -19 -13 -15 -24 4 -10 -1 -22 -11 -30 -17 -13 -17 -13 0 -14 10 0 17
-8 17 -19 0 -10 7 -25 16 -32 13 -10 15 -25 11 -64 -3 -27 -2 -41 2 -31 7 19
8 19 13 -1 3 -12 1 -26 -6 -33 -8 -8 -7 -13 4 -20 12 -8 12 -11 -3 -28 -9 -10
-17 -23 -17 -28 0 -5 4 -3 9 5 5 7 14 10 20 7 16 -10 14 -26 -4 -26 -8 0 -15
-4 -15 -10 0 -5 9 -10 21 -10 12 0 19 -5 16 -12 -2 -7 -11 -12 -21 -10 -20 4
-20 -7 -1 -32 16 -21 20 -56 8 -56 -5 0 -8 -18 -8 -40 0 -25 5 -40 13 -40 6 0
12 -9 12 -19 0 -10 7 -21 15 -25 8 -3 15 -12 15 -21 0 -8 -7 -15 -15 -15 -8 0
-15 -4 -15 -9 0 -21 13 -41 26 -41 8 0 14 -9 14 -20 0 -13 -7 -20 -20 -20 -11
0 -20 -4 -20 -10 0 -5 9 -10 20 -10 22 0 27 -15 8 -24 -9 -3 -8 -8 5 -16 12
-8 15 -19 11 -38 -4 -19 -3 -23 4 -13 12 17 24 -1 16 -23 -5 -14 11 -16 144
-16 143 0 151 1 157 21 7 22 8 21 -76 131 -76 100 -130 213 -161 338 -42 170
-76 319 -93 410 -8 47 -28 130 -43 185 -23 85 -27 120 -27 230 0 94 5 148 18
194 25 91 14 87 -17 -6z"/>
<path d="M120 1478 c0 -49 5 -47 14 5 4 23 3 37 -4 37 -5 0 -10 -19 -10 -42z"/>
<path d="M2241 1464 c0 -11 3 -14 6 -6 3 7 2 16 -1 19 -3 4 -6 -2 -5 -13z"/>
<path d="M2280 1464 c0 -8 5 -12 10 -9 6 4 8 11 5 16 -9 14 -15 11 -15 -7z"/>
<path d="M2262 1335 c0 -16 2 -22 5 -12 2 9 2 23 0 30 -3 6 -5 -1 -5 -18z"/>
<path d="M2361 1344 c0 -11 3 -14 6 -6 3 7 2 16 -1 19 -3 4 -6 -2 -5 -13z"/>
<path d="M623 1235 c0 -27 2 -38 4 -22 2 15 2 37 0 50 -2 12 -4 0 -4 -28z"/>
<path d="M2194 1241 c3 -4 17 -6 31 -3 21 4 25 0 26 -19 1 -17 3 -19 6 -6 2 9
9 17 14 17 5 0 9 5 9 10 0 6 -21 10 -46 10 -25 0 -43 -4 -40 -9z"/>
<path d="M2331 1182 c0 -20 3 -31 9 -27 6 3 10 -3 10 -15 0 -12 -4 -18 -10
-15 -6 4 -10 -5 -10 -19 0 -32 16 -34 26 -3 4 12 12 26 18 30 8 6 8 10 -1 14
-7 2 -13 17 -14 31 0 24 -1 25 -8 7 -8 -19 -9 -18 -13 5 -5 21 -5 20 -7 -8z"/>
<path d="M2261 1134 c0 -11 3 -14 6 -6 3 7 2 16 -1 19 -3 4 -6 -2 -5 -13z"/>
<path d="M2262 1040 c0 -19 2 -27 5 -17 2 9 2 25 0 35 -3 9 -5 1 -5 -18z"/>
<path d="M2330 1050 c0 -6 7 -10 15 -10 8 0 15 2 15 4 0 2 -7 6 -15 10 -8 3
-15 1 -15 -4z"/>
<path d="M2271 947 c-1 -40 -4 -48 -18 -46 -40 4 -52 -1 -46 -17 4 -11 8 -12
13 -4 5 8 22 11 44 8 30 -3 35 -1 30 11 -4 9 -10 34 -14 56 l-7 40 -2 -48z"/>
<path d="M625 731 c1 -135 -2 -236 -6 -225 -4 10 -8 32 -8 47 -2 51 -18 19
-20 -38 -2 -65 6 -79 72 -129 44 -34 48 -35 42 -14 -4 13 -16 38 -27 55 -20
34 -21 39 -33 343 -9 249 -22 224 -20 -39z"/>
<path d="M2424 894 c-17 -14 -17 -15 -1 -10 10 3 23 6 28 6 5 0 9 5 9 10 0 14
-13 12 -36 -6z"/>
<path d="M2436 806 c5 -61 24 -116 23 -66 -1 14 -7 48 -15 75 l-13 50 5 -59z"/>
<path d="M2214 839 c-3 -6 -1 -16 5 -22 8 -8 11 -5 11 11 0 24 -5 28 -16 11z"/>
<path d="M2221 744 c0 -11 3 -14 6 -6 3 7 2 16 -1 19 -3 4 -6 -2 -5 -13z"/>
<path d="M2298 708 c5 -21 6 -21 13 -2 6 16 8 17 13 3 4 -8 0 -29 -9 -45 -8
-16 -15 -40 -15 -54 l1 -25 15 28 c8 15 16 27 17 27 1 0 3 -13 4 -29 2 -28 0
-30 -40 -33 l-42 -3 -3 -52 c-2 -28 1 -66 7 -85 8 -27 9 -19 7 45 -2 77 5 98
19 55 l8 -23 4 23 c2 12 7 22 11 23 4 0 19 3 33 5 29 5 30 2 64 -173 7 -34 25
-55 25 -29 0 8 -5 18 -10 21 -6 4 -8 10 -5 14 2 5 -2 32 -11 61 -9 30 -14 68
-12 86 3 27 0 34 -17 36 -15 2 -21 12 -23 40 -2 27 -7 35 -18 31 -8 -3 -14 -1
-14 5 0 5 6 12 14 15 9 3 12 15 9 31 -4 19 -12 26 -28 26 -19 0 -22 -4 -17
-22z"/>
<path d="M2220 647 c0 -42 4 -77 9 -77 8 0 4 140 -4 149 -3 2 -5 -30 -5 -72z"/>
<path d="M2471 644 c0 -11 3 -14 6 -6 3 7 2 16 -1 19 -3 4 -6 -2 -5 -13z"/>
<path d="M2297 470 c3 -25 7 -47 9 -49 8 -9 2 55 -6 74 -6 13 -7 5 -3 -25z"/>
<path d="M2512 445 c0 -16 2 -22 5 -12 2 9 2 23 0 30 -3 6 -5 -1 -5 -18z"/>
<path d="M2267 360 c3 -25 10 -52 15 -60 12 -20 1 67 -12 89 -6 10 -7 0 -3
-29z"/>
<path d="M2500 360 c0 -5 5 -10 11 -10 5 0 7 5 4 10 -3 6 -8 10 -11 10 -2 0
-4 -4 -4 -10z"/>
<path d="M2322 325 c0 -16 2 -22 5 -12 2 9 2 23 0 30 -3 6 -5 -1 -5 -18z"/>
<path d="M716 331 c-3 -5 1 -14 9 -21 8 -7 15 -16 15 -21 0 -5 12 -28 27 -52
15 -23 26 -45 25 -49 -1 -5 3 -8 8 -8 6 0 14 -8 18 -17 17 -42 104 -163 117
-163 14 0 -40 94 -131 226 -24 36 -44 71 -44 77 0 16 -37 39 -44 28z"/>
<path d="M2271 270 c-7 -4 -12 -12 -10 -18 3 -7 10 -6 22 3 20 14 9 29 -12 15z"/>
<path d="M2358 225 c2 -14 8 -23 12 -20 10 6 1 45 -10 45 -4 0 -5 -11 -2 -25z"/>
<path d="M160 230 c0 -5 5 -10 10 -10 6 0 10 5 10 10 0 6 -4 10 -10 10 -5 0
-10 -4 -10 -10z"/>
<path d="M2258 193 c-6 -22 1 -43 12 -43 5 0 8 13 7 30 -2 33 -12 40 -19 13z"/>
<path d="M2373 135 c0 -22 2 -30 4 -17 2 12 2 30 0 40 -3 9 -5 -1 -4 -23z"/>
<path d="M2421 124 c0 -11 3 -14 6 -6 3 7 2 16 -1 19 -3 4 -6 -2 -5 -13z"/>
<path d="M2432 60 c0 -19 2 -27 5 -17 2 9 2 25 0 35 -3 9 -5 1 -5 -18z"/>
<path d="M2380 46 c0 -14 5 -26 10 -26 6 0 10 9 10 19 0 11 -4 23 -10 26 -6 4
-10 -5 -10 -19z"/>
<path d="M4978 54 c-15 -8 -62 -23 -105 -33 l-78 -20 61 0 c85 -1 114 6 154
39 29 24 32 29 15 29 -11 0 -32 -6 -47 -15z"/>
</g>
</svg>
